# xmcd
#
# Track frame offsets: 
#        150
#        12590
#        23837
#        35182
#        47192
#        58020
#        71865
#        84705
#        97755
#
# Disc length: 1509 seconds
#
# Revision: 0
# Processed by: cddbd v1.4PL0 Copyright (c) Steve Scherf et al.
# Submitted via: ExactAudioCopy v0.90b4
#
DISCID=7a05e309
DTITLE=George Jones - Blue Side Of Lonesome
DYEAR=1900
DGENRE=Country
TTITLE0=Blue Side Of Lonesome
TTITLE1=Gonna Come Get You
TTITLE2=Apartment No.9
TTITLE3=Half Of Me Is Gone
TTITLE4=Gotta Talk To Your Heart
TTITLE5=That Heart Belongs To Me
TTITLE6=I Cried Myself Awake
TTITLE7=Mama, Take Me Home
TTITLE8=Getting Over The Storm
EXTD=
EXTT0=
EXTT1=
EXTT2=
EXTT3=
EXTT4=
EXTT5=
EXTT6=
EXTT7=
EXTT8=
PLAYORDER=
